<?xml version="1.0" encoding="UTF-8"?>
<!DOCTYPE svg  PUBLIC '-//W3C//DTD SVG 1.1//EN'  'http://www.w3.org/Graphics/SVG/1.1/DTD/svg11.dtd'>
<svg enable-background="new 0 0 73.3 66.05" version="1.1" viewBox="0 0 73.3 66.05" xml:space="preserve" xmlns="http://www.w3.org/2000/svg" xmlns:xlink="http://www.w3.org/1999/xlink">
<symbol id="bd" viewBox="0 -12.95 26.3 12.95">
		<path d="m26.3-6.45c0-1.8-1.283-3.333-3.85-4.6s-5.667-1.9-9.3-1.9-6.733 0.633-9.3 1.9-3.85 2.8-3.85 4.6c0 1.767 1.283 3.283 3.85 4.55s5.667 1.9 9.3 1.9 6.733-0.633 9.3-1.9 3.85-2.783 3.85-4.55z" clip-rule="evenodd" fill="#4F4F4F" fill-rule="evenodd"/>
</symbol>
<symbol id="bc" viewBox="6.45 -16.779 66.45 17.25">
			<radialGradient id="ak" cx="39.675" cy="-9.1499" r="24.88" gradientTransform="matrix(1 0 0 -.3627 0 -11.5)" gradientUnits="userSpaceOnUse">
			<stop stop-color="#001F20" stop-opacity=".851" offset="0"/>
			<stop stop-color="#231F20" stop-opacity="0" offset=".8745"/>
		</radialGradient>
		<path d="m63.2-14.307c-6.5-1.648-14.333-2.472-23.5-2.472-9.2 0-17.034 0.824-23.5 2.472-6.5 1.686-9.75 3.728-9.75 6.125 0 2.322 3.25 4.346 9.75 6.068 6.467 1.723 14.3 2.584 23.5 2.584s17.033-0.861 23.5-2.584c6.466-1.723 9.7-3.746 9.7-6.068 0-2.398-3.233-4.44-9.7-6.125z" clip-rule="evenodd" fill="url(#ak)" fill-rule="evenodd"/>
</symbol>
<symbol id="bj">
</symbol>
			<use transform="matrix(0 .9937 1.759 0 51.5 -6.3999)" x="6.45" y="-16.779" width="66.45" height="17.25" enable-background="new" opacity=".75" xlink:href="#bc"/>
			<use transform="matrix(0 1.4242 1.6078 0 46.95 14.05)" y="-12.95" width="26.3" height="12.95" enable-background="new" opacity=".1992" xlink:href="#bd"/>
				<g clip-rule="evenodd" fill-rule="evenodd">
					<path d="m43.35 19.9c1.9 3.4 2.851 7.483 2.851 12.25 0 4.8-0.95 8.883-2.851 12.25-1.899 3.366-4.199 5.05-6.899 5.05-2.667 0-4.967-1.684-6.9-5.05-1.9-3.367-2.85-7.45-2.85-12.25 0-4.767 0.95-8.85 2.85-12.25 1.934-3.367 4.233-5.05 6.9-5.05 2.699 0 4.999 1.683 6.899 5.05z" fill="#939190"/>
					<path d="m42.4 21c1.633 3.067 2.449 6.75 2.449 11.05s-0.816 7.983-2.449 11.05c-1.667 3.067-3.65 4.601-5.95 4.601-2.333 0-4.317-1.533-5.95-4.601-1.633-3.033-2.45-6.716-2.45-11.05 0-4.333 0.817-8.017 2.45-11.05 1.633-3.067 3.617-4.6 5.95-4.6 2.3 0 4.283 1.533 5.95 4.6z" fill="#FFF7F2"/>
						<radialGradient id="au" cx="36.449" cy="32.05" r="17.75" gradientTransform="matrix(1 0 0 -1.7246 0 87.324)" gradientUnits="userSpaceOnUse">
						<stop stop-color="#130C0E" stop-opacity="0" offset=".3059"/>
						<stop stop-color="#130C0E" stop-opacity=".651" offset=".702"/>
						<stop stop-color="#130C0E" stop-opacity=".949" offset="1"/>
					</radialGradient>
					<path d="m42.4 21c1.633 3.067 2.449 6.75 2.449 11.05s-0.816 7.983-2.449 11.05c-1.667 3.067-3.65 4.601-5.95 4.601-2.333 0-4.317-1.533-5.95-4.601-1.633-3.033-2.45-6.716-2.45-11.05 0-4.333 0.817-8.017 2.45-11.05 1.633-3.067 3.617-4.6 5.95-4.6 2.3 0 4.283 1.533 5.95 4.6z" fill="url(#au)"/>
					<path d="m40.75 23.05c1.167 2.467 1.75 5.45 1.75 8.95 0 3.467-0.583 6.434-1.75 8.9-1.134 2.466-2.517 3.699-4.15 3.699s-3.033-1.233-4.2-3.699c-1.167-2.467-1.75-5.434-1.75-8.9 0-3.5 0.583-6.483 1.75-8.95 1.167-2.466 2.567-3.7 4.2-3.7s3.016 1.233 4.15 3.7z" fill="#ADA8A5"/>
					<path d="m40.25 23.65c0.967 2.3 1.45 5.083 1.45 8.35s-0.483 6.05-1.45 8.35c-1 2.301-2.2 3.45-3.6 3.45-1.367 0-2.55-1.149-3.55-3.45-0.967-2.333-1.45-5.116-1.45-8.35s0.483-6.017 1.45-8.35c1-2.3 2.183-3.45 3.55-3.45 1.4 0 2.6 1.15 3.6 3.45z" fill="#F7F0EC"/>
						<radialGradient id="av" cx="36.65" cy="32" r="9.0625" gradientTransform="matrix(1 0 0 -2.8138 0 122.04)" gradientUnits="userSpaceOnUse">
						<stop stop-color="#130C0E" stop-opacity="0" offset=".3059"/>
						<stop stop-color="#130C0E" stop-opacity=".651" offset=".702"/>
						<stop stop-color="#130C0E" stop-opacity=".949" offset="1"/>
					</radialGradient>
					<path d="m40.25 23.65c0.967 2.3 1.45 5.083 1.45 8.35s-0.483 6.05-1.45 8.35c-1 2.301-2.2 3.45-3.6 3.45-1.367 0-2.55-1.149-3.55-3.45-0.967-2.333-1.45-5.116-1.45-8.35s0.483-6.017 1.45-8.35c1-2.3 2.183-3.45 3.55-3.45 1.4 0 2.6 1.15 3.6 3.45z" fill="url(#av)"/>
					<path d="m39.3 25.25c0.634 1.867 0.95 4.117 0.95 6.75 0 2.634-0.316 4.884-0.95 6.75-0.633 1.866-1.399 2.8-2.3 2.8s-1.667-0.934-2.3-2.8c-0.667-1.866-1-4.116-1-6.75 0-2.633 0.333-4.883 1-6.75 0.633-1.867 1.399-2.8 2.3-2.8s1.667 0.933 2.3 2.8z" fill="#AFABA9"/>
					<path d="m38.85 25.75c0.533 1.7 0.801 3.767 0.801 6.2s-0.268 4.5-0.801 6.2c-0.5 1.699-1.116 2.55-1.85 2.55s-1.35-0.851-1.85-2.55c-0.533-1.7-0.8-3.767-0.8-6.2s0.267-4.5 0.8-6.2c0.5-1.733 1.117-2.6 1.85-2.6s1.35 0.867 1.85 2.6z" fill="#FFF7F2"/>
						<radialGradient id="aw" cx="37.25" cy="28.2" r="9.3875" gradientTransform="matrix(1 0 0 -3.0053 0 112.95)" gradientUnits="userSpaceOnUse">
						<stop stop-color="#130C0E" stop-opacity="0" offset=".098"/>
						<stop stop-color="#130C0E" stop-opacity=".651" offset=".702"/>
						<stop stop-color="#130C0E" stop-opacity=".949" offset="1"/>
					</radialGradient>
					<path d="m38.85 25.75c0.533 1.7 0.801 3.767 0.801 6.2s-0.268 4.5-0.801 6.2c-0.5 1.699-1.116 2.55-1.85 2.55s-1.35-0.851-1.85-2.55c-0.533-1.7-0.8-3.767-0.8-6.2s0.267-4.5 0.8-6.2c0.5-1.733 1.117-2.6 1.85-2.6s1.35 0.867 1.85 2.6z" fill="url(#aw)"/>
				</g>
					<g clip-rule="evenodd" fill-rule="evenodd">
						<path d="m17.8 27.45c0.034 0.267-0.216 0.55-0.75 0.85-0.767 0.467-1.366 0.934-1.8 1.4-0.566 0.7-1.05 1.216-1.45 1.55-0.667 0.633-1.35 0.95-2.05 0.95-0.733 0-1.45-0.317-2.15-0.95-0.333-0.333-0.8-0.9-1.4-1.7-0.167-0.233-0.7-0.55-1.6-0.95-0.667-0.333-0.95-0.717-0.85-1.15 0.133-0.6 2.167-0.9 6.1-0.9 3.933 0.033 5.917 0.333 5.95 0.9z" fill="#E0D9D4"/>
						<path d="m14.3 32.25c0 0.167-0.267 0.317-0.8 0.45-0.5 0.133-1.117 0.2-1.85 0.2-1.8 0-2.7-0.217-2.7-0.65 0-0.167 0.267-0.317 0.8-0.45s1.167-0.2 1.9-0.2 1.35 0.066 1.85 0.2c0.533 0.133 0.8 0.283 0.8 0.45z" fill="#E0D9D4"/>
						<path d="m14.1 32.1c0 0.1-0.25 0.2-0.75 0.3-0.5 0.067-1.083 0.1-1.75 0.1-1.633 0-2.45-0.133-2.45-0.4s0.817-0.4 2.45-0.4c1.667 0 2.5 0.133 2.5 0.4z" fill="#C4BDBA"/>
						<path d="m11.4 32.3v-0.05l0.2 0.05 0.25-0.05v0.05h1c-0.133 0.167-0.267 0.35-0.4 0.55-0.233 0.4-0.3 0.667-0.2 0.8 0.133 0.233 0.233 0.633 0.3 1.2 0.067 0.367-0.116 0.617-0.55 0.75 0.133 0.101 0.083 0.15-0.15 0.15h-0.45c-0.133 0-0.183-0.017-0.15-0.05s0.017-0.066-0.05-0.101c-0.434-0.133-0.617-0.383-0.55-0.75l0.1-0.6c0.066-0.267 0.15-0.467 0.25-0.6 0.133-0.233-0.083-0.683-0.65-1.35h1.05z" fill="#E0D9D4"/>
						<path d="m13.3 37.3c0 0.533-0.6 0.8-1.8 0.8-1.033 0-1.55-0.267-1.55-0.8 0-0.399 0.167-0.833 0.5-1.3 0.333-0.5 0.716-0.75 1.15-0.75 0.433 0 0.833 0.25 1.2 0.75 0.333 0.434 0.5 0.866 0.5 1.3z" fill="#E0D9D4"/>
						<path d="m13.3 35.55c0 0.233-0.55 0.351-1.65 0.351s-1.65-0.118-1.65-0.351 0.55-0.35 1.65-0.35 1.65 0.116 1.65 0.35z" fill="#FFF7F2"/>
						<path d="m12.75 35.4c0 0.1-0.417 0.149-1.25 0.149-0.8 0-1.2-0.05-1.2-0.149 0-0.134 0.4-0.2 1.2-0.2 0.833 0 1.25 0.067 1.25 0.2z" fill="#918C8B"/>
						<path d="m20.55 26.9c0.333 0.533 1.6 1.583 3.8 3.15 2.066 1.833 3.216 3.784 3.45 5.851 0.3 3.1 0.3 5.533 0 7.3-0.4 2.333-1.35 3.85-2.85 4.55-1.833 0.866-3.483 1.2-4.95 1-1.7-0.2-3.05-1.116-4.05-2.75-1.1-1.767-1.483-3.717-1.15-5.85 0.3-1.834 0.983-3.2 2.05-4.101 1.033-0.866 2.183-1.267 3.45-1.2 1.434 0.067 2.417 0.733 2.95 2 1.233 2.934 1.316 5.134 0.25 6.601-0.434 0.566-0.85 0.967-1.25 1.2l-0.5 0.149-2.2-2.1 1.1-0.05c0.767-0.233 1.25-0.9 1.45-2 0.267-1.4-0.083-2.617-1.05-3.65-1-1.033-2.017-1-3.05 0.1-1.133 1.267-1.75 2.567-1.85 3.9-0.1 1.467 0.45 2.8 1.65 4 1.233 1.267 2.684 1.65 4.35 1.15 1.7-0.5 2.717-1.65 3.05-3.45 0.466-2.434 0.7-4.134 0.7-5.101 0-1.733-0.433-3.199-1.3-4.399-0.534-0.767-1.8-1.833-3.8-3.2-1.566-1.067-2.333-2.017-2.3-2.85 0.066-1.833 0.434-3.75 1.1-5.75 0.9-2.733 2.05-4.15 3.45-4.25 1.434-0.1 2.617 0.517 3.55 1.85 0.767 1.1 1.083 2.117 0.95 3.05-0.133 0.934-0.333 1.633-0.6 2.1l-1.95-0.55c0.133-0.867 0.15-1.717 0.05-2.55-0.2-1.633-0.866-2.333-2-2.1-0.933 0.2-1.7 1.383-2.3 3.55-0.6 2.1-0.667 3.567-0.2 4.4z" fill="#FFF7F2"/>
							<linearGradient id="ax" x1="-60.872" x2="-10.972" y1="21.354" y2="21.354" gradientTransform="matrix(2.004e-5 -1 1 -.001 -.00012732 .00020274)" gradientUnits="userSpaceOnUse">
							<stop stop-color="#231F20" offset=".0902"/>
							<stop stop-color="#231F20" stop-opacity=".7961" offset=".1216"/>
							<stop stop-color="#231F20" stop-opacity="0" offset=".451"/>
							<stop stop-color="#231F20" stop-opacity=".2471" offset=".7333"/>
							<stop stop-color="#231F20" stop-opacity="0" offset=".8275"/>
							<stop stop-color="#231F20" stop-opacity=".4392" offset="1"/>
						</linearGradient>
						<path d="m20.55 26.9c0.333 0.533 1.6 1.583 3.8 3.15 2.066 1.833 3.216 3.784 3.45 5.851 0.3 3.1 0.3 5.533 0 7.3-0.4 2.333-1.35 3.85-2.85 4.55-1.833 0.866-3.483 1.2-4.95 1-1.7-0.2-3.05-1.116-4.05-2.75-1.1-1.767-1.483-3.717-1.15-5.85 0.3-1.834 0.983-3.2 2.05-4.101 1.033-0.866 2.183-1.267 3.45-1.2 1.434 0.067 2.417 0.733 2.95 2 1.233 2.934 1.316 5.134 0.25 6.601-0.434 0.566-0.85 0.967-1.25 1.2l-0.5 0.149-2.2-2.1 1.1-0.05c0.767-0.233 1.25-0.9 1.45-2 0.267-1.4-0.083-2.617-1.05-3.65-1-1.033-2.017-1-3.05 0.1-1.133 1.267-1.75 2.567-1.85 3.9-0.1 1.467 0.45 2.8 1.65 4 1.233 1.267 2.684 1.65 4.35 1.15 1.7-0.5 2.717-1.65 3.05-3.45 0.466-2.434 0.7-4.134 0.7-5.101 0-1.733-0.433-3.199-1.3-4.399-0.567-0.767-1.817-1.833-3.75-3.2-1.534-1.067-2.317-2.017-2.35-2.85-0.066-6.433 1.45-9.767 4.55-10 1.434-0.1 2.617 0.517 3.55 1.85 0.767 1.1 1.083 2.117 0.95 3.05-0.133 0.934-0.333 1.633-0.6 2.1l-1.95-0.55c0.133-0.867 0.15-1.717 0.05-2.55-0.2-1.633-0.866-2.333-2-2.1-0.933 0.2-1.7 1.383-2.3 3.55-0.6 2.1-0.667 3.567-0.2 4.4z" fill="url(#ax)"/>
						<path d="m22.1 40.65c0.2-1.101-0.017-2.15-0.65-3.15-0.7-1-1.483-1.366-2.35-1.1l-0.05-0.1 0.9-0.2c0.7-0.066 1.333 0.134 1.9 0.601 0.633 0.5 1.083 1.267 1.35 2.3 0.233 0.934 0.267 1.684 0.1 2.25-0.2 0.7-0.466 1.3-0.8 1.8l-1.2-0.8c0.4-0.334 0.667-0.867 0.8-1.601z" fill="#A39E9D"/>
						<path d="m22.5 43.4c0 0.5-0.167 0.933-0.5 1.3-0.333 0.333-0.733 0.5-1.2 0.5-0.466 0-0.866-0.167-1.2-0.5-0.333-0.367-0.5-0.8-0.5-1.3s0.167-0.917 0.5-1.25c0.333-0.367 0.733-0.551 1.2-0.551s0.867 0.184 1.2 0.551c0.333 0.333 0.5 0.75 0.5 1.25z" fill="#F4EDE9"/>
						<path d="m22.5 43.5c0 0.434-0.1 0.783-0.3 1.05-0.2 0.3-0.433 0.45-0.7 0.45s-0.5-0.15-0.7-0.45-0.3-0.649-0.3-1.05c0-0.434 0.1-0.8 0.3-1.1 0.2-0.301 0.434-0.45 0.7-0.45 0.267 0.033 0.5 0.2 0.7 0.5 0.2 0.267 0.3 0.616 0.3 1.05z" fill="#E5DFDB"/>
						<path d="m25.5 21.1l1.55 2.55-0.1 0.6c-0.067 0.6-0.083 1.417-0.05 2.45 0.1 2.4 0.65 3.583 1.65 3.55 0.967-0.033 1.617-0.733 1.95-2.1 0.3-1.233 0.233-2.117-0.2-2.65-0.3-0.333-0.533-0.283-0.7 0.15-0.067 0.2-0.1 0.434-0.1 0.7-0.367 0.267-0.816 0.2-1.35-0.2-0.133-0.2-0.216-0.45-0.25-0.75-0.066-0.6 0.217-1.167 0.85-1.7 0.566-0.5 1.217-0.5 1.95 0s1.167 1.316 1.3 2.45c0.2 1.967-0.15 3.65-1.05 5.05-1 1.466-2.25 1.85-3.75 1.15s-2.25-2.7-2.25-6l0.4-4.75 0.15-0.5z" fill="#FFF7F2"/>
							<linearGradient id="ay" x1="-36.728" x2="-9.5285" y1="28.504" y2="28.504" gradientTransform="matrix(3.6765e-5 -1 1 -.001 5.2295e-5 -.00028674)" gradientUnits="userSpaceOnUse">
							<stop stop-color="#231F20" stop-opacity=".498" offset="0"/>
							<stop stop-color="#231F20" stop-opacity=".4078" offset=".0353"/>
							<stop stop-color="#231F20" stop-opacity=".0588" offset=".3882"/>
							<stop stop-color="#231F20" stop-opacity=".4627" offset=".6078"/>
							<stop stop-color="#231F20" stop-opacity=".4392" offset="1"/>
						</linearGradient>
						<path d="m25.5 21.1l1.55 2.55-0.1 0.6c-0.067 0.6-0.083 1.417-0.05 2.45 0.1 2.4 0.65 3.583 1.65 3.55 0.967-0.033 1.617-0.733 1.95-2.1 0.3-1.233 0.233-2.117-0.2-2.65-0.3-0.333-0.533-0.283-0.7 0.15-0.067 0.2-0.1 0.434-0.1 0.7-0.367 0.267-0.816 0.2-1.35-0.2-0.133-0.2-0.216-0.45-0.25-0.75-0.066-0.6 0.217-1.167 0.85-1.7 0.566-0.5 1.217-0.5 1.95 0s1.167 1.316 1.3 2.45c0.2 1.967-0.15 3.65-1.05 5.05-1 1.466-2.25 1.85-3.75 1.15s-2.25-2.7-2.25-6l0.4-4.75 0.15-0.5z" fill="url(#ay)"/>
						<path d="m23.2 48.5c-1.467 0.333-2.85 0.366-4.15 0.1-1.6-0.333-2.767-1.1-3.5-2.3-1.2-1.934-1.667-3.934-1.4-6 0.233-2.033 1.133-3.533 2.7-4.5 0.7-0.399 1.483-0.684 2.35-0.85-2.6 1.8-3.884 3.649-3.85 5.55 0.066 3.3 1.233 5.55 3.5 6.75 0.633 0.3 1.433 0.583 2.4 0.85 0.533 0.133 1.184 0.266 1.95 0.4z" fill="#8E8682"/>
							<linearGradient id="az" x1="-54.494" x2="-30.644" y1="18.641" y2="18.641" gradientTransform="matrix(4.1929e-5 -1 1 -.001 .00017377 .00020274)" gradientUnits="userSpaceOnUse">
							<stop stop-color="#231F20" offset=".0902"/>
							<stop stop-color="#231F20" stop-opacity=".7961" offset=".1216"/>
							<stop stop-color="#231F20" stop-opacity="0" offset=".451"/>
							<stop stop-color="#231F20" stop-opacity=".4392" offset="1"/>
						</linearGradient>
						<path d="m23.2 48.5c-1.467 0.333-2.85 0.366-4.15 0.1-1.6-0.333-2.767-1.1-3.5-2.3-1.2-1.934-1.667-3.934-1.4-6 0.233-2.033 1.133-3.533 2.7-4.5 0.7-0.399 1.483-0.684 2.35-0.85-2.6 1.8-3.884 3.649-3.85 5.55 0.066 3.3 1.233 5.55 3.5 6.75 0.633 0.3 1.433 0.583 2.4 0.85 0.533 0.133 1.184 0.266 1.95 0.4z" fill="url(#az)"/>
						<path d="m18.5 27.6l1.1-0.4 0.6 0.9c0.133 0.133 0.767 0.617 1.9 1.45 1.233 0.867 2.216 1.667 2.95 2.4 0.833 0.8 1.417 2.05 1.75 3.75 0.167 0.934 0.317 2.233 0.45 3.899 0.167 1.301 0.033 2.601-0.4 3.9-0.5 1.566-1.333 2.55-2.5 2.95-1.034 0.366-1.95 0.467-2.75 0.3-0.534-0.134-0.85-0.283-0.95-0.45 1.067 0.066 2.017-0.2 2.85-0.8 0.9-0.667 1.467-1.6 1.7-2.8 0.466-2.434 0.7-4.134 0.7-5.101 0-1.733-0.433-3.199-1.3-4.399-0.534-0.767-1.733-1.767-3.6-3-1.566-1.066-2.4-1.932-2.5-2.599z" fill="#8E8682"/>
							<linearGradient id="ba" x1="22.327" x2="45.527" y1="-22.907" y2="-22.907" gradientTransform="matrix(4.3103e-5 1 -1 -.001 -1.4848e-5 .00020583)" gradientUnits="userSpaceOnUse">
							<stop stop-color="#231F20" offset=".0902"/>
							<stop stop-color="#231F20" stop-opacity=".7961" offset=".1216"/>
							<stop stop-color="#231F20" stop-opacity="0" offset=".451"/>
							<stop stop-color="#231F20" stop-opacity=".4392" offset="1"/>
						</linearGradient>
						<path d="m18.5 27.6l1.1-0.4 0.6 0.9c0.133 0.133 0.767 0.617 1.9 1.45 1.233 0.867 2.216 1.667 2.95 2.4 0.833 0.8 1.417 2.05 1.75 3.75 0.167 0.934 0.317 2.233 0.45 3.899 0.167 1.301 0.033 2.601-0.4 3.9-0.5 1.566-1.333 2.55-2.5 2.95-1.034 0.366-1.95 0.467-2.75 0.3-0.534-0.134-0.85-0.283-0.95-0.45 1.067 0.066 2.017-0.2 2.85-0.8 0.9-0.667 1.467-1.6 1.7-2.8 0.466-2.434 0.7-4.134 0.7-5.101 0-1.733-0.433-3.199-1.3-4.399-0.534-0.767-1.733-1.767-3.6-3-1.566-1.066-2.4-1.932-2.5-2.599z" fill="url(#ba)"/>
						<path d="m25.45 17.9c-1.034-0.333-1.967-0.333-2.8 0-0.566 0.2-1.15 0.883-1.75 2.05-0.433 0.9-0.783 1.85-1.05 2.85-0.3 1.034-0.35 2.617-0.15 4.75l-1.15 0.05c-0.133-1.8-0.033-3.7 0.3-5.7 0.233-1.333 0.816-2.483 1.75-3.45 0.733-0.767 1.45-1.233 2.15-1.4 0.733-0.167 1.633 0.117 2.7 0.85z" fill="#A39E9D"/>
							<linearGradient id="bb" x1="1.1675" x2="23.008" y1="-27.733" y2="-27.733" gradientTransform="matrix(-.3571 .9341 -.9341 -.3571 .0006969 -4.1068e-5)" gradientUnits="userSpaceOnUse">
							<stop stop-opacity="0" offset=".3765"/>
							<stop stop-color="#231F20" stop-opacity=".2392" offset=".9843"/>
						</linearGradient>
						<path d="m25.45 17.9c-1.034-0.333-1.967-0.333-2.8 0-0.566 0.2-1.15 0.883-1.75 2.05-0.433 0.9-0.783 1.85-1.05 2.85-0.3 1.034-0.367 2.617-0.2 4.75l-1.15 0.05c-0.1-1.8 0.017-3.7 0.35-5.7 0.233-1.333 0.816-2.483 1.75-3.45 0.733-0.767 1.45-1.233 2.15-1.4 0.733-0.167 1.633 0.117 2.7 0.85z" fill="url(#bb)"/>
							<linearGradient id="be" x1="1.1675" x2="23.008" y1="-27.733" y2="-27.733" gradientTransform="matrix(-.3571 .9341 -.9341 -.3571 .0006969 -4.1068e-5)" gradientUnits="userSpaceOnUse">
							<stop stop-color="#231F20" offset=".0902"/>
							<stop stop-color="#231F20" stop-opacity=".7961" offset=".1216"/>
							<stop stop-color="#231F20" stop-opacity="0" offset=".451"/>
							<stop stop-color="#231F20" stop-opacity=".4392" offset="1"/>
						</linearGradient>
						<path d="m25.45 17.9c-1.034-0.333-1.967-0.333-2.8 0-0.566 0.2-1.15 0.883-1.75 2.05-0.433 0.9-0.783 1.85-1.05 2.85-0.3 1.034-0.367 2.617-0.2 4.75l-1.15 0.05c-0.1-1.8 0.017-3.7 0.35-5.7 0.233-1.333 0.816-2.483 1.75-3.45 0.733-0.767 1.45-1.233 2.15-1.4 0.733-0.167 1.633 0.117 2.7 0.85z" fill="url(#be)"/>
						<path d="m25.05 22.7c0.067-0.767-0.066-1.55-0.4-2.35-0.367-0.9-0.883-1.383-1.55-1.45 0.1 0 0.466-0.066 1.1-0.2 0.633-0.067 1.1 0.05 1.4 0.35l0.3 0.45c0.233 0.4 0.434 0.867 0.6 1.4 0.233 0.6 0.267 1.333 0.1 2.2l-1.55-0.4z" fill="#A39E9D"/>
							<linearGradient id="bf" x1="-25.312" x2="-18.838" y1="24.906" y2="24.906" gradientTransform="matrix(.00015444 -1 1 -.001 -.00015573 -.00028864)" gradientUnits="userSpaceOnUse">
							<stop stop-color="#231F20" stop-opacity="0" offset=".4353"/>
							<stop stop-color="#231F20" stop-opacity=".298" offset=".9725"/>
						</linearGradient>
						<path d="m25.05 22.7c0.067-0.767-0.066-1.55-0.4-2.35-0.367-0.9-0.883-1.383-1.55-1.45 0.1 0 0.466-0.066 1.1-0.2 0.633-0.067 1.1 0.05 1.4 0.35l0.3 0.45c0.233 0.4 0.434 0.867 0.6 1.4 0.233 0.6 0.267 1.333 0.1 2.2l-1.55-0.4z" fill="url(#bf)"/>
						<path d="m25.05 24.2l1.15-0.15-0.15 2.7c0 1.9 0.267 3.133 0.8 3.7 0.533 0.6 1.133 0.966 1.8 1.1 0.3 0.034 0.767 0.034 1.4 0 0.333-0.066 0.634-0.216 0.9-0.45-0.967 1.533-2.217 1.95-3.75 1.25-1.833-0.867-2.55-3.583-2.15-8.15z" fill="#A39E9D"/>
							<linearGradient id="bg" x1="-33.628" x2="-24.328" y1="27.949" y2="27.949" gradientTransform="matrix(.00010753 -1 1 -.001 3.2064e-5 -.00028864)" gradientUnits="userSpaceOnUse">
							<stop stop-color="#1C1919" stop-opacity=".3373" offset="0"/>
							<stop stop-color="#141212" stop-opacity=".2392" offset=".0706"/>
							<stop stop-color="#050505" stop-opacity=".0588" offset=".251"/>
							<stop stop-opacity="0" offset=".4"/>
							<stop stop-color="#231F20" stop-opacity=".298" offset=".9608"/>
						</linearGradient>
						<path d="m25.05 24.2l1.15-0.15-0.15 2.7c0 1.9 0.267 3.133 0.8 3.7 0.533 0.6 1.133 0.966 1.8 1.1 0.3 0.034 0.767 0.034 1.4 0 0.333-0.066 0.634-0.216 0.9-0.45-0.967 1.533-2.217 1.95-3.75 1.25-1.833-0.867-2.55-3.583-2.15-8.15z" fill="url(#bg)"/>
						<path d="m29.7 28.5c0.1-0.4 0.083-1.033-0.05-1.9l-0.2-1.2 1.15-0.4 0.4 2.1c0.133 1-0.05 1.9-0.55 2.7-0.3 0.567-0.934 0.717-1.9 0.45 0.634-0.667 1.016-1.25 1.15-1.75z" fill="#A39E9D"/>
						<path d="m30.3 25.4c0 0.434-0.116 0.783-0.35 1.05-0.2 0.3-0.467 0.45-0.8 0.45-0.3 0-0.55-0.15-0.75-0.45-0.233-0.267-0.35-0.617-0.35-1.05 0-0.4 0.117-0.733 0.35-1 0.2-0.3 0.45-0.45 0.75-0.45 0.333 0 0.6 0.15 0.8 0.45 0.234 0.267 0.35 0.6 0.35 1z" fill="#D8D4D1"/>
						<path d="m27.2 23.3c0 0.4-0.15 0.733-0.45 1-0.267 0.267-0.617 0.4-1.05 0.4-0.4 0-0.733-0.133-1-0.4-0.3-0.267-0.45-0.6-0.45-1 0-0.367 0.15-0.7 0.45-1 0.267-0.267 0.6-0.4 1-0.4 0.433 0 0.783 0.133 1.05 0.4 0.3 0.3 0.45 0.633 0.45 1z" fill="#F4EDE9"/>
						<path d="m27.4 23.3c0 0.333-0.1 0.633-0.3 0.9-0.233 0.233-0.483 0.35-0.75 0.35s-0.517-0.117-0.75-0.35c-0.2-0.267-0.3-0.567-0.3-0.9s0.1-0.633 0.3-0.9c0.233-0.233 0.483-0.35 0.75-0.35s0.517 0.117 0.75 0.35c0.2 0.267 0.3 0.567 0.3 0.9z" fill="#D8D5D3"/>
						<path d="m20.9 44.15c0.2 0.267 0.483 0.5 0.85 0.699-0.3 0.233-0.617 0.351-0.95 0.351-0.466 0-0.866-0.167-1.2-0.5-0.333-0.367-0.5-0.8-0.5-1.3l0.1-0.601 1.25 0.2 0.1 0.45c0.067 0.301 0.183 0.534 0.35 0.701z" fill="#A39E9D"/>
						<path d="m26 24.25c0.133 0.067 0.367 0.1 0.7 0.1-0.3 0.233-0.634 0.35-1 0.35-0.4 0-0.733-0.133-1-0.4-0.3-0.267-0.45-0.6-0.45-1v-0.3l1.1-0.05 0.05 0.5c0.067 0.367 0.267 0.633 0.6 0.8z" fill="#A39E9D"/>
						<path d="m29.85 26.3l0.2 0.05c-0.2 0.367-0.5 0.55-0.9 0.55-0.2 0-0.433-0.133-0.7-0.4s-0.45-0.55-0.55-0.85l1.35 0.05 0.15 0.25c0.1 0.2 0.25 0.317 0.45 0.35z" fill="#A39E9D"/>
						<path d="m5.75 27.45c0.133-0.6 2.167-0.9 6.1-0.9 3.933 0.034 5.917 0.333 5.95 0.9 0 0.267-1.7 0.483-5.1 0.65-1.534 0.033-3.15-0.067-4.85-0.3l-2.1-0.35z" fill="#C4BDBA"/>
						<path d="m6.8 27.45c0.1-0.434 1.784-0.65 5.05-0.65s4.917 0.217 4.95 0.65c0 0.233-1.417 0.383-4.25 0.45-1.267 0.033-2.6-0.033-4-0.2l-1.75-0.25z" fill="#A39E9D"/>
						<path d="m7.65 27.4c0.1-0.333 1.45-0.483 4.05-0.45 2.633 0 3.966 0.167 4 0.5 0 0.167-1.134 0.283-3.4 0.35-1.033 0.034-2.116-0.033-3.25-0.2l-1.4-0.2z" fill="#918C8B"/>
						<path d="m11.95 30c-1.167 0-2.284-0.133-3.35-0.4l-1.25-0.45 4.35 0.35c1.233 0 2.616-0.117 4.15-0.35-0.666 0.567-1.967 0.85-3.9 0.85z" fill="#A39E9D"/>
						<path d="m9.5 31.15l0.55 0.2c0.5 0.133 1.034 0.217 1.6 0.25 0.934 0.033 1.8-0.233 2.6-0.8-0.733 1-1.533 1.483-2.4 1.45-0.567 0-1.133-0.183-1.7-0.55l-0.65-0.55z" fill="#A39E9D"/>
						<path d="m10.85 32.95h1.55c-0.133 0.267-0.2 0.433-0.2 0.5l-1.2 0.05-0.15-0.55z" fill="#8E8682"/>
						<path d="m10.6 35.8c0.233 0.066 0.583 0.101 1.05 0.101 0.434 0 0.767-0.034 1-0.101l0.45 0.75c-0.434 0.101-0.934 0.15-1.5 0.15l-1.6-0.15 0.6-0.75z" fill="#A39E9D"/>
						<path d="m10.4 38.15l1.85-0.15-0.05 0.25c-0.034 0.233-0.017 0.55 0.05 0.95 0.133 0.8 0.717 1.816 1.75 3.05 0.967 1.267 1.583 2.25 1.85 2.95 0.6 1.566 0.267 2.717-1 3.45-1.267 0.699-2.317 0.449-3.15-0.75l-0.9-2 0.4-0.25 0.95 0.35 0.4 1c0.367 0.533 0.8 0.566 1.3 0.1 0.5-0.5 0.383-1.316-0.35-2.449-0.133-0.233-0.8-1.117-2-2.65-0.467-0.566-0.783-1.384-0.95-2.45l-0.15-1.401z" fill="#8E8682"/>
							<linearGradient id="bh" x1="35.587" x2="47.987" y1="-13.224" y2="-13.224" gradientTransform="matrix(8.0645e-5 1 -1 -.001 -.00045705 .00020179)" gradientUnits="userSpaceOnUse">
							<stop stop-color="#231F20" offset=".0902"/>
							<stop stop-color="#231F20" stop-opacity=".7961" offset=".1216"/>
							<stop stop-color="#231F20" stop-opacity="0" offset=".451"/>
							<stop stop-color="#231F20" stop-opacity=".4392" offset="1"/>
						</linearGradient>
						<path d="m10.45 38.2l1.75 0.05 0.05 0.95c0.133 0.8 0.717 1.816 1.75 3.05 2.434 3.267 2.65 5.45 0.65 6.55-1.233 0.7-2.25 0.434-3.05-0.8l-0.8-2.05 0.4-0.3 0.95 0.35 0.4 0.95c0.367 0.533 0.8 0.566 1.3 0.1 0.5-0.5 0.4-1.316-0.3-2.45-0.167-0.233-0.833-1.1-2-2.6-0.466-0.566-0.783-1.366-0.95-2.4l-0.15-1.4z" fill="url(#bh)"/>
						<path d="m12.2 38.45l-1.85 0.1c0.133-0.233 0.2-0.383 0.2-0.45l1.7-0.05-0.05 0.4z" fill="#8E8682"/>
						<path d="m11.65 39.75l-0.25-1.35h0.8c-0.034 0.233-0.017 0.5 0.05 0.8 0.133 0.8 0.717 1.816 1.75 3.05 0.967 1.267 1.583 2.25 1.85 2.95 0.6 1.566 0.267 2.717-1 3.45l-0.2 0.05c-0.3 0-0.533-0.033-0.7-0.101-0.6-0.133-1.15-0.566-1.65-1.3l-0.55-1 0.4-0.3 0.8 1.15c0.6 0.733 1.1 1 1.5 0.8 0.433-0.167 0.667-0.4 0.7-0.7 0.034-0.1 0.017-0.6-0.05-1.5-0.034-0.934-0.65-2.033-1.85-3.3-0.733-0.765-1.267-1.666-1.6-2.699z" fill="#FFF7F2"/>
							<linearGradient id="bi" x1="-55.176" x2="-30.951" y1="13.772" y2="13.772" gradientTransform="matrix(4.128e-5 -1 1 -.001 -.00023705 .00020274)" gradientUnits="userSpaceOnUse">
							<stop stop-color="#231F20" offset=".0902"/>
							<stop stop-color="#231F20" stop-opacity=".7961" offset=".1216"/>
							<stop stop-color="#231F20" stop-opacity="0" offset=".451"/>
							<stop stop-color="#231F20" stop-opacity=".2471" offset=".7333"/>
							<stop stop-color="#231F20" stop-opacity="0" offset=".8275"/>
							<stop stop-color="#231F20" stop-opacity=".4392" offset="1"/>
						</linearGradient>
						<path d="m11.65 39.75l-0.25-1.35h0.8c-0.034 0.233-0.017 0.5 0.05 0.8 0.133 0.8 0.717 1.816 1.75 3.05 0.967 1.267 1.583 2.25 1.85 2.95 0.6 1.566 0.267 2.717-1 3.45l-0.2 0.05c-0.3 0-0.533-0.033-0.7-0.101-0.6-0.133-1.15-0.566-1.65-1.3l-0.55-1 0.4-0.3 0.8 1.15c0.6 0.733 1.1 1 1.5 0.8 0.433-0.167 0.667-0.4 0.7-0.7 0.034-0.1 0.017-0.6-0.05-1.5-0.034-0.934-0.65-2.033-1.85-3.3-0.733-0.765-1.267-1.666-1.6-2.699z" fill="url(#bi)"/>
						<path d="m11.3 31.6c-0.833-0.133-1.45-0.317-1.85-0.55-0.167-0.1-0.55-0.183-1.15-0.25-0.566-0.066-0.95-0.216-1.15-0.45-0.267-0.3-0.25-0.533 0.05-0.7s0.783-0.167 1.45 0c1.3 0.3 2.183 0.95 2.65 1.95z" fill="#FFF7F2"/>
						<path d="m8 30.15c0.767-0.133 1.583 0.267 2.45 1.2h-0.2c-0.267-0.033-0.533-0.133-0.8-0.3-0.167-0.1-0.517-0.183-1.05-0.25-0.5-0.066-0.85-0.167-1.05-0.3 0.133-0.133 0.35-0.25 0.65-0.35z" fill="#C4BDBA"/>
						<path d="m10.2 31.4l-0.55-0.05-0.85-0.4-0.8-0.25 0.9-0.1c0.233 0 0.666 0.267 1.3 0.8z" fill="#918C8B"/>
						<path d="m12 31.7l0.6-0.8c0.566-0.6 1.25-1 2.05-1.2 0.667-0.133 1.15-0.117 1.45 0.05s0.316 0.4 0.05 0.7c-0.2 0.2-0.583 0.35-1.15 0.45-0.6 0.067-0.983 0.15-1.15 0.25-0.233 0.133-0.617 0.267-1.15 0.4l-0.7 0.15z" fill="#FFF7F2"/>
						<path d="m15.3 30.25c0.233 0.033 0.45 0.15 0.65 0.35-0.2 0.133-0.55 0.233-1.05 0.3-0.533 0.067-0.883 0.15-1.05 0.25l-0.8 0.3h-0.2l0.8-0.7c0.633-0.433 1.183-0.6 1.65-0.5z" fill="#C4BDBA"/>
						<path d="m13.1 31.45l0.5-0.35c0.4-0.267 0.667-0.4 0.8-0.4l0.9 0.1c-0.366 0.034-0.633 0.1-0.8 0.2l-0.8 0.4-0.6 0.05z" fill="#918C8B"/>
						<path d="m12.8 31.4c-0.133 0.167-0.4 0.267-0.8 0.3l-1.1-0.1c-0.6-0.6-0.917-1.017-0.95-1.25-0.067-0.467 0.383-0.7 1.35-0.7 0.867 0 1.367 0.583 1.5 1.75z" fill="#FFF7F2"/>
						<path d="m12.7 31.6c-0.333 0.167-0.75 0.217-1.25 0.15-0.3-0.067-0.483-0.133-0.55-0.2-0.066-0.1-0.167-0.2-0.3-0.3-0.167-0.1-0.25-0.217-0.25-0.35v-0.2c-0.034-0.067-0.05-0.15-0.05-0.25 0.034-0.2 0.167-0.317 0.4-0.35 0.366-0.1 0.716-0.017 1.05 0.25l0.25 0.2c0.167 0.133 0.267 0.267 0.3 0.4l0.4 0.65z" fill="#C4BDBA"/>
						<polygon points="11.55 31.8 11.2 31.2 11.05 30.5 11.65 31 12.2 31.7" fill="#918C8B"/>
						<path d="m17.8 27.45c0 0.167-0.25 0.333-0.75 0.5-0.966 0.367-2.616 0.583-4.95 0.65-3.1 0.1-5.083-0.017-5.95-0.35l-0.4-0.55 6 0.5c1.333 0.067 3.35-0.183 6.05-0.75z" fill="#FFF7F2"/>
						<path d="m12.05 28.95c2-0.067 3.634-0.284 4.9-0.65l-1.35 1c-1.6 0.2-2.9 0.284-3.9 0.25l-3.95-0.3-1.3-0.8 1.7 0.25c1.367 0.2 2.666 0.283 3.9 0.25z" fill="#C6C0BD"/>
						<path d="m8.95 32.25h2.9c0.867 0.033 1.683 0.033 2.45 0-0.466 0.2-1.283 0.3-2.45 0.3-0.733 0-1.434-0.05-2.1-0.15l-0.8-0.15z" fill="#FFF7F2"/>
						<path d="m10.9 35.1l0.05-0.35c0.133-0.233 0.35-0.35 0.65-0.35 0.466 0 0.683 0.233 0.65 0.699h-1.35z" fill="#FFF7F2"/>
						<path d="m11 33.5c0.733-0.033 1.117-0.017 1.15 0.05l0.3 0.7-0.7-0.1c-0.167-0.034-0.5 0.017-1 0.149 0.066-0.3 0.15-0.517 0.25-0.65v-0.149z" fill="#C6C0BD"/>
						<path d="m10.8 36.8l0.8 0.15c0.267 0 0.583-0.066 0.95-0.2 0.034 0.667-0.25 1.017-0.85 1.05-0.4 0.033-0.667-0.116-0.8-0.45l-0.1-0.55z" fill="#FFF7F2"/>
						<path d="m10.8 37.9l0.65 0.199c-1.134 0.2-1.7 0.017-1.7-0.55 0-0.366 0.1-0.733 0.3-1.1h0.35l-0.1 0.6c0 0.434 0.167 0.718 0.5 0.851z" fill="#8E8682"/>
						<path d="m12.85 37.7c0.3-0.167 0.267-0.483-0.1-0.95l0.35-0.15c0.133 0.334 0.2 0.567 0.2 0.7 0 0.467-0.4 0.733-1.2 0.8l0.75-0.4z" fill="#C6C0BD"/>
						<path d="m23.3 46.85c1.467-0.6 2.467-1.366 3-2.3 0.5-0.967 0.867-2.3 1.1-4 0.233 1.467-0.167 3.084-1.2 4.851-0.333 0.632-1.3 1.116-2.9 1.449z" fill="#FFF7F2"/>
						<path d="m26.1 26.5v-0.3l0.8 3.65c0.4 0.8 1.167 1.4 2.3 1.8-0.9-0.167-1.684-0.566-2.35-1.2-0.633-0.567-0.883-1.883-0.75-3.95z" fill="#FFF7F2"/>
						<path d="m28.4 23.95c0.3-0.467 0.767-0.667 1.4-0.6 0.3 0.033 0.583 0.117 0.85 0.25-0.133 0.033-0.3 0.083-0.5 0.15-0.367 0.167-0.65 0.417-0.85 0.75-0.167 0.367-0.216 0.667-0.15 0.9 0 0.133 0.034 0.233 0.1 0.3l-1.35-0.05c-0.033-0.1-0.033-0.25 0-0.45 0.067-0.4 0.233-0.817 0.5-1.25z" fill="#FFF7F2"/>
						<polygon points="27 24.3 26.9 24.8 26.1 25.2 26.05 24.6" fill="#918C8B"/>
						<polygon points="10.8 45.9 11.2 45.65 12.15 46 11.75 46.3" fill="#A39E9D"/>
					</g>
					<g clip-rule="evenodd" fill-rule="evenodd">
						<path d="m55.2 28.101c-0.033 0.267 0.217 0.55 0.75 0.85 0.767 0.467 1.366 0.934 1.8 1.4 0.566 0.7 1.05 1.217 1.45 1.55 0.667 0.634 1.35 0.95 2.05 0.95 0.733 0 1.45-0.316 2.15-0.95 0.333-0.333 0.8-0.9 1.399-1.7 0.167-0.233 0.7-0.55 1.601-0.95 0.666-0.333 0.95-0.716 0.85-1.149-0.133-0.601-2.166-0.9-6.1-0.9-3.933 0.031-5.917 0.332-5.95 0.899z" fill="#E0D9D4"/>
						<path d="m58.7 32.9c0 0.167 0.267 0.316 0.8 0.45 0.5 0.133 1.117 0.2 1.851 0.2 1.8 0 2.699-0.217 2.699-0.65 0-0.167-0.267-0.316-0.8-0.45-0.533-0.133-1.166-0.2-1.899-0.2s-1.351 0.067-1.851 0.2c-0.533 0.134-0.8 0.283-0.8 0.45z" fill="#E0D9D4"/>
						<path d="m58.9 32.75c0 0.101 0.25 0.2 0.75 0.301 0.5 0.066 1.083 0.1 1.75 0.1 1.633 0 2.45-0.134 2.45-0.4s-0.817-0.399-2.45-0.399c-1.667-1e-3 -2.5 0.131-2.5 0.398z" fill="#C4BDBA"/>
						<path d="m61.601 32.95v-0.05l-0.2 0.05-0.25-0.05v0.05h-1c0.133 0.167 0.267 0.351 0.399 0.55 0.233 0.4 0.301 0.667 0.2 0.801-0.133 0.233-0.233 0.633-0.3 1.199-0.066 0.367 0.116 0.617 0.55 0.75-0.133 0.101-0.083 0.15 0.15 0.15h0.45c0.133 0 0.183-0.017 0.149-0.05s-0.017-0.066 0.05-0.101c0.434-0.133 0.617-0.383 0.551-0.75l-0.101-0.6c-0.066-0.267-0.149-0.467-0.25-0.6-0.133-0.233 0.084-0.684 0.65-1.351h-1.048z" fill="#E0D9D4"/>
						<path d="m59.7 37.95c0 0.533 0.6 0.8 1.8 0.8 1.033 0 1.55-0.267 1.55-0.8 0-0.399-0.166-0.833-0.5-1.3-0.333-0.5-0.716-0.75-1.149-0.75s-0.834 0.25-1.2 0.75c-0.334 0.434-0.501 0.867-0.501 1.3z" fill="#E0D9D4"/>
						<path d="m59.7 36.2c0 0.233 0.55 0.351 1.65 0.351s1.649-0.117 1.649-0.351-0.55-0.35-1.649-0.35c-1.1 1e-3 -1.65 0.117-1.65 0.35z" fill="#FFF7F2"/>
						<path d="m60.25 36.051c0 0.1 0.417 0.149 1.25 0.149 0.8 0 1.2-0.05 1.2-0.149 0-0.134-0.4-0.2-1.2-0.2-0.833 0-1.25 0.066-1.25 0.2z" fill="#918C8B"/>
						<path d="m52.45 27.551c-0.333 0.533-1.6 1.583-3.8 3.149-2.066 1.834-3.217 3.783-3.45 5.851-0.3 3.1-0.3 5.533 0 7.3 0.4 2.333 1.35 3.85 2.85 4.55 1.834 0.866 3.483 1.2 4.95 1 1.7-0.2 3.05-1.116 4.05-2.75 1.101-1.767 1.483-3.717 1.15-5.85-0.3-1.834-0.983-3.2-2.05-4.101-1.033-0.866-2.184-1.267-3.45-1.2-1.434 0.067-2.417 0.733-2.95 2-1.233 2.934-1.316 5.134-0.25 6.601 0.434 0.566 0.851 0.967 1.25 1.2l0.5 0.149 2.2-2.1-1.1-0.05c-0.767-0.233-1.25-0.9-1.45-2-0.267-1.4 0.083-2.617 1.05-3.65 1-1.033 2.017-1 3.05 0.1 1.134 1.267 1.75 2.567 1.851 3.9 0.1 1.467-0.45 2.8-1.65 4-1.233 1.267-2.684 1.65-4.35 1.15-1.7-0.5-2.717-1.65-3.051-3.45-0.466-2.434-0.699-4.134-0.699-5.101 0-1.733 0.433-3.199 1.3-4.399 0.533-0.767 1.8-1.834 3.8-3.2 1.566-1.066 2.333-2.017 2.3-2.85-0.066-1.834-0.434-3.75-1.1-5.75-0.9-2.733-2.05-4.15-3.45-4.25-1.434-0.101-2.616 0.517-3.55 1.85-0.767 1.1-1.084 2.116-0.95 3.05s0.333 1.634 0.6 2.101l1.949-0.551c-0.133-0.866-0.149-1.716-0.05-2.55 0.2-1.633 0.866-2.333 2-2.1 0.934 0.2 1.7 1.383 2.3 3.55 0.601 2.1 0.667 3.567 0.2 4.401z" fill="#FFF7F2"/>
							<linearGradient id="af" x1="-279.63" x2="-229.73" y1="532.31" y2="532.31" gradientTransform="matrix(-2.004e-5 -1 -1 -.001 583.95 -217.6)" gradientUnits="userSpaceOnUse">
							<stop stop-color="#231F20" offset=".0902"/>
							<stop stop-color="#231F20" stop-opacity=".7961" offset=".1216"/>
							<stop stop-color="#231F20" stop-opacity="0" offset=".451"/>
							<stop stop-color="#231F20" stop-opacity=".2471" offset=".7333"/>
							<stop stop-color="#231F20" stop-opacity="0" offset=".8275"/>
							<stop stop-color="#231F20" stop-opacity=".4392" offset="1"/>
						</linearGradient>
						<path d="m52.45 27.551c-0.333 0.533-1.6 1.583-3.8 3.149-2.066 1.834-3.217 3.783-3.45 5.851-0.3 3.1-0.3 5.533 0 7.3 0.4 2.333 1.35 3.85 2.85 4.55 1.834 0.866 3.483 1.2 4.95 1 1.7-0.2 3.05-1.116 4.05-2.75 1.101-1.767 1.483-3.717 1.15-5.85-0.3-1.834-0.983-3.2-2.05-4.101-1.033-0.866-2.184-1.267-3.45-1.2-1.434 0.067-2.417 0.733-2.95 2-1.233 2.934-1.316 5.134-0.25 6.601 0.434 0.566 0.851 0.967 1.25 1.2l0.5 0.149 2.2-2.1-1.1-0.05c-0.767-0.233-1.25-0.9-1.45-2-0.267-1.4 0.083-2.617 1.05-3.65 1-1.033 2.017-1 3.05 0.1 1.134 1.267 1.75 2.567 1.851 3.9 0.1 1.467-0.45 2.8-1.65 4-1.233 1.267-2.684 1.65-4.35 1.15-1.7-0.5-2.717-1.65-3.051-3.45-0.466-2.434-0.699-4.134-0.699-5.101 0-1.733 0.433-3.199 1.3-4.399 0.566-0.767 1.816-1.834 3.75-3.2 1.533-1.066 2.316-2.017 2.35-2.85 0.066-6.434-1.45-9.767-4.55-10-1.434-0.101-2.616 0.517-3.55 1.85-0.767 1.1-1.084 2.116-0.95 3.05s0.333 1.634 0.6 2.101l1.949-0.551c-0.133-0.866-0.149-1.716-0.05-2.55 0.2-1.633 0.866-2.333 2-2.1 0.934 0.2 1.7 1.383 2.3 3.55 0.601 2.1 0.667 3.567 0.2 4.401z" fill="url(#af)"/>
						<path d="m50.9 41.301c-0.2-1.101 0.017-2.15 0.649-3.15 0.7-1 1.483-1.366 2.351-1.1l0.05-0.101-0.9-0.2c-0.699-0.066-1.333 0.134-1.899 0.601-0.634 0.5-1.084 1.267-1.351 2.3-0.233 0.934-0.267 1.684-0.1 2.25 0.2 0.7 0.467 1.3 0.8 1.8l1.2-0.8c-0.4-0.334-0.667-0.867-0.8-1.6z" fill="#A39E9D"/>
						<path d="m50.5 44.051c0 0.5 0.167 0.933 0.5 1.3 0.334 0.333 0.733 0.5 1.2 0.5s0.866-0.167 1.2-0.5c0.333-0.367 0.5-0.8 0.5-1.3s-0.167-0.917-0.5-1.25c-0.334-0.367-0.733-0.551-1.2-0.551s-0.866 0.184-1.2 0.551c-0.333 0.333-0.5 0.75-0.5 1.25z" fill="#F4EDE9"/>
						<path d="m50.5 44.15c0 0.434 0.101 0.783 0.3 1.05 0.2 0.3 0.434 0.45 0.7 0.45s0.5-0.15 0.7-0.45 0.3-0.649 0.3-1.05c0-0.434-0.1-0.8-0.3-1.1-0.2-0.301-0.434-0.45-0.7-0.45-0.267 0.033-0.5 0.2-0.7 0.5-0.199 0.267-0.3 0.617-0.3 1.05z" fill="#E5DFDB"/>
						<path d="m47.5 21.75l-1.55 2.551 0.1 0.6c0.067 0.6 0.084 1.417 0.051 2.45-0.101 2.399-0.651 3.583-1.651 3.549-0.967-0.033-1.616-0.733-1.95-2.1-0.3-1.233-0.233-2.117 0.2-2.65 0.3-0.333 0.533-0.283 0.7 0.15 0.066 0.199 0.1 0.433 0.1 0.699 0.367 0.267 0.816 0.2 1.351-0.199 0.133-0.2 0.216-0.45 0.25-0.75 0.066-0.601-0.217-1.167-0.851-1.7-0.566-0.5-1.217-0.5-1.95 0s-1.166 1.316-1.3 2.45c-0.2 1.966 0.15 3.649 1.05 5.05 1 1.467 2.25 1.85 3.75 1.149 1.5-0.699 2.25-2.699 2.25-6l-0.399-4.75-0.151-0.499z" fill="#FFF7F2"/>
							<linearGradient id="ag" x1="-255.49" x2="-228.29" y1="539.46" y2="539.46" gradientTransform="matrix(-3.6765e-5 -1 -1 -.001 583.95 -217.6)" gradientUnits="userSpaceOnUse">
							<stop stop-color="#231F20" stop-opacity=".498" offset="0"/>
							<stop stop-color="#231F20" stop-opacity=".4078" offset=".0353"/>
							<stop stop-color="#231F20" stop-opacity=".0588" offset=".3882"/>
							<stop stop-color="#231F20" stop-opacity=".4627" offset=".6078"/>
							<stop stop-color="#231F20" stop-opacity=".4392" offset="1"/>
						</linearGradient>
						<path d="m47.5 21.75l-1.55 2.551 0.1 0.6c0.067 0.6 0.084 1.417 0.051 2.45-0.101 2.399-0.651 3.583-1.651 3.549-0.967-0.033-1.616-0.733-1.95-2.1-0.3-1.233-0.233-2.117 0.2-2.65 0.3-0.333 0.533-0.283 0.7 0.15 0.066 0.199 0.1 0.433 0.1 0.699 0.367 0.267 0.816 0.2 1.351-0.199 0.133-0.2 0.216-0.45 0.25-0.75 0.066-0.601-0.217-1.167-0.851-1.7-0.566-0.5-1.217-0.5-1.95 0s-1.166 1.316-1.3 2.45c-0.2 1.966 0.15 3.649 1.05 5.05 1 1.467 2.25 1.85 3.75 1.149 1.5-0.699 2.25-2.699 2.25-6l-0.399-4.75-0.151-0.499z" fill="url(#ag)"/>
						<path d="m49.8 49.15c1.467 0.333 2.851 0.366 4.15 0.1 1.6-0.333 2.767-1.1 3.5-2.3 1.2-1.934 1.667-3.934 1.4-6-0.233-2.033-1.134-3.533-2.7-4.5-0.7-0.399-1.483-0.684-2.351-0.85 2.601 1.8 3.884 3.649 3.851 5.55-0.066 3.3-1.233 5.55-3.5 6.75-0.634 0.3-1.434 0.583-2.4 0.85-0.533 0.134-1.184 0.267-1.95 0.4z" fill="#8E8682"/>
							<linearGradient id="ah" x1="-273.25" x2="-249.4" y1="529.6" y2="529.6" gradientTransform="matrix(-4.1929e-5 -1 -1 -.001 583.95 -217.6)" gradientUnits="userSpaceOnUse">
							<stop stop-color="#231F20" offset=".0902"/>
							<stop stop-color="#231F20" stop-opacity=".7961" offset=".1216"/>
							<stop stop-color="#231F20" stop-opacity="0" offset=".451"/>
							<stop stop-color="#231F20" stop-opacity=".4392" offset="1"/>
						</linearGradient>
						<path d="m49.8 49.15c1.467 0.333 2.851 0.366 4.15 0.1 1.6-0.333 2.767-1.1 3.5-2.3 1.2-1.934 1.667-3.934 1.4-6-0.233-2.033-1.134-3.533-2.7-4.5-0.7-0.399-1.483-0.684-2.351-0.85 2.601 1.8 3.884 3.649 3.851 5.55-0.066 3.3-1.233 5.55-3.5 6.75-0.634 0.3-1.434 0.583-2.4 0.85-0.533 0.134-1.184 0.267-1.95 0.4z" fill="url(#ah)"/>
						<path d="m54.5 28.25l-1.1-0.399-0.6 0.899c-0.133 0.134-0.767 0.617-1.899 1.45-1.233 0.867-2.217 1.667-2.95 2.4-0.833 0.8-1.417 2.05-1.75 3.75-0.167 0.934-0.316 2.233-0.45 3.899-0.166 1.301-0.033 2.601 0.4 3.9 0.5 1.566 1.333 2.55 2.5 2.95 1.033 0.366 1.95 0.467 2.75 0.3 0.533-0.134 0.85-0.283 0.95-0.45-1.067 0.066-2.017-0.2-2.851-0.8-0.899-0.667-1.467-1.6-1.7-2.8-0.466-2.434-0.699-4.134-0.699-5.101 0-1.733 0.433-3.199 1.3-4.399 0.533-0.767 1.733-1.767 3.6-3 1.565-1.065 2.399-1.932 2.499-2.599z" fill="#8E8682"/>
							<linearGradient id="ai" x1="240.07" x2="263.27" y1="-533.85" y2="-533.85" gradientTransform="matrix(-4.3103e-5 1 1 -.001 583.95 -217.6)" gradientUnits="userSpaceOnUse">
							<stop stop-color="#231F20" offset=".0902"/>
							<stop stop-color="#231F20" stop-opacity=".7961" offset=".1216"/>
							<stop stop-color="#231F20" stop-opacity="0" offset=".451"/>
							<stop stop-color="#231F20" stop-opacity=".4392" offset="1"/>
						</linearGradient>
						<path d="m54.5 28.25l-1.1-0.399-0.6 0.899c-0.133 0.134-0.767 0.617-1.899 1.45-1.233 0.867-2.217 1.667-2.95 2.4-0.833 0.8-1.417 2.05-1.75 3.75-0.167 0.934-0.316 2.233-0.45 3.899-0.166 1.301-0.033 2.601 0.4 3.9 0.5 1.566 1.333 2.55 2.5 2.95 1.033 0.366 1.95 0.467 2.75 0.3 0.533-0.134 0.85-0.283 0.95-0.45-1.067 0.066-2.017-0.2-2.851-0.8-0.899-0.667-1.467-1.6-1.7-2.8-0.466-2.434-0.699-4.134-0.699-5.101 0-1.733 0.433-3.199 1.3-4.399 0.533-0.767 1.733-1.767 3.6-3 1.565-1.065 2.399-1.932 2.499-2.599z" fill="url(#ai)"/>
						<path d="m50.25 17.7c-0.733-0.166-1.633 0.117-2.7 0.851 1.034-0.334 1.967-0.334 2.801 0 0.566 0.199 1.149 0.883 1.75 2.05 0.433 0.899 0.783 1.85 1.05 2.85 0.3 1.033 0.35 2.617 0.149 4.75l1.15 0.05c0.134-1.8 0.033-3.699-0.3-5.699-0.233-1.334-0.816-2.483-1.75-3.45-0.733-0.768-1.45-1.235-2.15-1.402z" fill="#A39E9D"/>
							<linearGradient id="aj" x1="22.545" x2="44.385" y1="-582.93" y2="-582.93" gradientTransform="matrix(.3571 .9341 .9341 -.3571 583.95 -217.6)" gradientUnits="userSpaceOnUse">
							<stop stop-opacity="0" offset=".3765"/>
							<stop stop-color="#231F20" stop-opacity=".2392" offset=".9843"/>
						</linearGradient>
						<path d="m50.25 17.7c-0.733-0.166-1.633 0.117-2.7 0.851 1.034-0.334 1.967-0.334 2.801 0 0.566 0.199 1.149 0.883 1.75 2.05 0.433 0.899 0.783 1.85 1.05 2.85 0.3 1.033 0.366 2.617 0.2 4.75l1.149 0.05c0.101-1.8-0.017-3.699-0.35-5.699-0.233-1.334-0.816-2.483-1.75-3.45-0.733-0.768-1.45-1.235-2.15-1.402z" fill="url(#aj)"/>
							<linearGradient id="al" x1="22.545" x2="44.385" y1="-582.93" y2="-582.93" gradientTransform="matrix(.3571 .9341 .9341 -.3571 583.95 -217.6)" gradientUnits="userSpaceOnUse">
							<stop stop-color="#231F20" offset=".0902"/>
							<stop stop-color="#231F20" stop-opacity=".7961" offset=".1216"/>
							<stop stop-color="#231F20" stop-opacity="0" offset=".451"/>
							<stop stop-color="#231F20" stop-opacity=".4392" offset="1"/>
						</linearGradient>
						<path d="m50.25 17.7c-0.733-0.166-1.633 0.117-2.7 0.851 1.034-0.334 1.967-0.334 2.801 0 0.566 0.199 1.149 0.883 1.75 2.05 0.433 0.899 0.783 1.85 1.05 2.85 0.3 1.033 0.366 2.617 0.2 4.75l1.149 0.05c0.101-1.8-0.017-3.699-0.35-5.699-0.233-1.334-0.816-2.483-1.75-3.45-0.733-0.768-1.45-1.235-2.15-1.402z" fill="url(#al)"/>
						<path d="m47.95 23.351c-0.066-0.767 0.066-1.55 0.4-2.351 0.366-0.899 0.883-1.383 1.55-1.449-0.101 0-0.467-0.067-1.101-0.2-0.633-0.066-1.1 0.05-1.399 0.35l-0.3 0.45c-0.233 0.4-0.434 0.866-0.601 1.4-0.233 0.6-0.267 1.333-0.1 2.199l1.551-0.399z" fill="#A39E9D"/>
							<linearGradient id="am" x1="-244.07" x2="-237.6" y1="535.89" y2="535.89" gradientTransform="matrix(-.00015444 -1 -1 -.001 583.95 -217.6)" gradientUnits="userSpaceOnUse">
							<stop stop-color="#231F20" stop-opacity="0" offset=".4353"/>
							<stop stop-color="#231F20" stop-opacity=".298" offset=".9725"/>
						</linearGradient>
						<path d="m47.95 23.351c-0.066-0.767 0.066-1.55 0.4-2.351 0.366-0.899 0.883-1.383 1.55-1.449-0.101 0-0.467-0.067-1.101-0.2-0.633-0.066-1.1 0.05-1.399 0.35l-0.3 0.45c-0.233 0.4-0.434 0.866-0.601 1.4-0.233 0.6-0.267 1.333-0.1 2.199l1.551-0.399z" fill="url(#am)"/>
						<path d="m47.95 24.851l-1.15-0.151 0.15 2.7c0 1.9-0.267 3.134-0.8 3.7-0.533 0.6-1.134 0.967-1.8 1.1-0.301 0.033-0.767 0.033-1.4 0-0.333-0.066-0.634-0.217-0.9-0.45 0.967 1.534 2.217 1.95 3.75 1.25 1.834-0.866 2.551-3.583 2.15-8.149z" fill="#A39E9D"/>
							<linearGradient id="an" x1="-252.39" x2="-243.09" y1="538.92" y2="538.92" gradientTransform="matrix(-.00010753 -1 -1 -.001 583.95 -217.6)" gradientUnits="userSpaceOnUse">
							<stop stop-color="#1C1919" stop-opacity=".3373" offset="0"/>
							<stop stop-color="#141212" stop-opacity=".2392" offset=".0706"/>
							<stop stop-color="#050505" stop-opacity=".0588" offset=".251"/>
							<stop stop-opacity="0" offset=".4"/>
							<stop stop-color="#231F20" stop-opacity=".298" offset=".9608"/>
						</linearGradient>
						<path d="m47.95 24.851l-1.15-0.151 0.15 2.7c0 1.9-0.267 3.134-0.8 3.7-0.533 0.6-1.134 0.967-1.8 1.1-0.301 0.033-0.767 0.033-1.4 0-0.333-0.066-0.634-0.217-0.9-0.45 0.967 1.534 2.217 1.95 3.75 1.25 1.834-0.866 2.551-3.583 2.15-8.149z" fill="url(#an)"/>
						<path d="m43.3 29.15c-0.1-0.4-0.083-1.033 0.051-1.9l0.199-1.199-1.149-0.4-0.4 2.1c-0.133 1 0.05 1.9 0.55 2.7 0.301 0.566 0.934 0.717 1.9 0.45-0.635-0.668-1.017-1.251-1.151-1.751z" fill="#A39E9D"/>
						<path d="m42.7 26.051c0 0.433 0.116 0.783 0.35 1.05 0.2 0.3 0.467 0.45 0.801 0.45 0.3 0 0.55-0.15 0.75-0.45 0.233-0.267 0.35-0.617 0.35-1.05 0-0.4-0.116-0.733-0.35-1-0.2-0.301-0.45-0.45-0.75-0.45-0.334 0-0.601 0.149-0.801 0.45-0.234 0.266-0.35 0.599-0.35 1z" fill="#D8D4D1"/>
						<path d="m45.8 23.95c0 0.4 0.15 0.733 0.45 1 0.267 0.267 0.617 0.4 1.05 0.4 0.4 0 0.733-0.134 1-0.4 0.301-0.267 0.45-0.6 0.45-1 0-0.366-0.149-0.7-0.45-1-0.267-0.267-0.6-0.399-1-0.399-0.433 0-0.783 0.133-1.05 0.399-0.3 0.3-0.45 0.634-0.45 1z" fill="#F4EDE9"/>
						<path d="m45.601 23.95c0 0.334 0.1 0.634 0.3 0.9 0.233 0.233 0.483 0.35 0.75 0.35s0.517-0.116 0.75-0.35c0.2-0.267 0.3-0.566 0.3-0.9 0-0.333-0.1-0.633-0.3-0.899-0.233-0.233-0.483-0.351-0.75-0.351s-0.517 0.117-0.75 0.351c-0.201 0.266-0.3 0.566-0.3 0.899z" fill="#D8D5D3"/>
						<path d="m52.101 44.801c-0.2 0.267-0.483 0.5-0.851 0.699 0.3 0.233 0.617 0.351 0.95 0.351 0.467 0 0.866-0.167 1.2-0.5 0.333-0.367 0.5-0.8 0.5-1.3l-0.1-0.601-1.25 0.2-0.1 0.45c-0.066 0.3-0.183 0.534-0.349 0.701z" fill="#A39E9D"/>
						<path d="m47 24.9c-0.133 0.066-0.366 0.1-0.7 0.1 0.301 0.233 0.634 0.351 1 0.351 0.4 0 0.733-0.134 1-0.4 0.301-0.267 0.45-0.6 0.45-1v-0.3l-1.1-0.05-0.05 0.5c-0.067 0.366-0.266 0.632-0.6 0.799z" fill="#A39E9D"/>
						<path d="m43.15 26.95l-0.2 0.05c0.2 0.367 0.5 0.551 0.9 0.551 0.199 0 0.433-0.134 0.699-0.4s0.45-0.55 0.551-0.85l-1.351 0.05-0.149 0.25c-0.1 0.2-0.249 0.316-0.45 0.349z" fill="#A39E9D"/>
						<path d="m67.25 28.101c-0.133-0.601-2.166-0.9-6.1-0.9-3.934 0.033-5.917 0.334-5.95 0.9 0 0.267 1.7 0.483 5.1 0.649 1.534 0.034 3.15-0.066 4.851-0.3l2.099-0.349z" fill="#C4BDBA"/>
						<path d="m66.2 28.101c-0.1-0.434-1.783-0.65-5.05-0.65s-4.917 0.217-4.95 0.65c0 0.233 1.417 0.383 4.25 0.45 1.267 0.033 2.6-0.034 4-0.2l1.75-0.25z" fill="#A39E9D"/>
						<path d="m65.351 28.051c-0.101-0.334-1.45-0.483-4.051-0.45-2.633 0-3.966 0.166-4 0.5 0 0.166 1.134 0.283 3.4 0.35 1.033 0.033 2.116-0.033 3.25-0.2l1.401-0.2z" fill="#918C8B"/>
						<path d="m61.05 30.65c1.167 0 2.284-0.134 3.351-0.4l1.25-0.449-4.351 0.349c-1.233 0-2.616-0.116-4.149-0.35 0.665 0.567 1.966 0.85 3.899 0.85z" fill="#A39E9D"/>
						<path d="m63.5 31.801l-0.55 0.199c-0.5 0.134-1.033 0.217-1.6 0.25-0.934 0.034-1.801-0.233-2.601-0.8 0.733 1 1.533 1.483 2.4 1.45 0.566 0 1.133-0.184 1.7-0.55l0.651-0.549z" fill="#A39E9D"/>
						<path d="m62.15 33.601h-1.55c0.133 0.267 0.199 0.434 0.199 0.5l1.2 0.05 0.151-0.55z" fill="#8E8682"/>
						<path d="m62.4 36.45c-0.233 0.066-0.584 0.101-1.05 0.101-0.434 0-0.767-0.034-1-0.101l-0.45 0.75c0.434 0.101 0.934 0.15 1.5 0.15l1.6-0.15-0.6-0.75z" fill="#A39E9D"/>
						<path d="m62.601 38.801l-1.851-0.15 0.05 0.25c0.034 0.233 0.017 0.55-0.05 0.95-0.133 0.8-0.717 1.816-1.75 3.05-0.967 1.267-1.583 2.25-1.85 2.95-0.601 1.566-0.267 2.717 1 3.45 1.267 0.699 2.316 0.449 3.149-0.75l0.9-2-0.4-0.25-0.949 0.35-0.4 1c-0.366 0.533-0.8 0.566-1.3 0.1-0.5-0.5-0.384-1.316 0.35-2.449 0.134-0.233 0.8-1.117 2-2.65 0.467-0.566 0.783-1.384 0.95-2.45l0.151-1.401z" fill="#8E8682"/>
							<linearGradient id="ao" x1="253.33" x2="265.73" y1="-524.16" y2="-524.16" gradientTransform="matrix(-8.0645e-5 1 1 -.001 583.95 -217.6)" gradientUnits="userSpaceOnUse">
							<stop stop-color="#231F20" offset=".0902"/>
							<stop stop-color="#231F20" stop-opacity=".7961" offset=".1216"/>
							<stop stop-color="#231F20" stop-opacity="0" offset=".451"/>
							<stop stop-color="#231F20" stop-opacity=".4392" offset="1"/>
						</linearGradient>
						<path d="m62.55 38.851l-1.75 0.049-0.05 0.95c-0.133 0.8-0.717 1.816-1.75 3.05-2.434 3.267-2.649 5.45-0.649 6.55 1.233 0.7 2.25 0.434 3.05-0.8l0.8-2.05-0.4-0.3-0.949 0.35-0.4 0.95c-0.366 0.533-0.8 0.566-1.3 0.1-0.5-0.5-0.4-1.316 0.3-2.45 0.167-0.233 0.833-1.1 2-2.6 0.467-0.566 0.783-1.366 0.95-2.4l0.148-1.399z" fill="url(#ao)"/>
						<path d="m60.8 39.101l1.851 0.1c-0.134-0.233-0.2-0.383-0.2-0.45l-1.7-0.05 0.049 0.4z" fill="#8E8682"/>
						<path d="m61.351 40.4l0.25-1.35h-0.801c0.034 0.233 0.017 0.5-0.05 0.8-0.133 0.8-0.717 1.816-1.75 3.05-0.967 1.267-1.583 2.25-1.85 2.95-0.601 1.566-0.267 2.717 1 3.45l0.2 0.05c0.3 0 0.533-0.033 0.699-0.101 0.601-0.133 1.15-0.566 1.65-1.3l0.55-1-0.399-0.3-0.801 1.15c-0.6 0.733-1.1 1-1.5 0.8-0.433-0.167-0.666-0.4-0.699-0.7-0.034-0.1-0.017-0.6 0.05-1.5 0.033-0.934 0.649-2.033 1.85-3.3 0.733-0.765 1.267-1.665 1.601-2.699z" fill="#FFF7F2"/>
							<linearGradient id="ap" x1="-273.94" x2="-249.71" y1="524.73" y2="524.73" gradientTransform="matrix(-4.128e-5 -1 -1 -.001 583.95 -217.6)" gradientUnits="userSpaceOnUse">
							<stop stop-color="#231F20" offset=".0902"/>
							<stop stop-color="#231F20" stop-opacity=".7961" offset=".1216"/>
							<stop stop-color="#231F20" stop-opacity="0" offset=".451"/>
							<stop stop-color="#231F20" stop-opacity=".2471" offset=".7333"/>
							<stop stop-color="#231F20" stop-opacity="0" offset=".8275"/>
							<stop stop-color="#231F20" stop-opacity=".4392" offset="1"/>
						</linearGradient>
						<path d="m61.351 40.4l0.25-1.35h-0.801c0.034 0.233 0.017 0.5-0.05 0.8-0.133 0.8-0.717 1.816-1.75 3.05-0.967 1.267-1.583 2.25-1.85 2.95-0.601 1.566-0.267 2.717 1 3.45l0.2 0.05c0.3 0 0.533-0.033 0.699-0.101 0.601-0.133 1.15-0.566 1.65-1.3l0.55-1-0.399-0.3-0.801 1.15c-0.6 0.733-1.1 1-1.5 0.8-0.433-0.167-0.666-0.4-0.699-0.7-0.034-0.1-0.017-0.6 0.05-1.5 0.033-0.934 0.649-2.033 1.85-3.3 0.733-0.765 1.267-1.665 1.601-2.699z" fill="url(#ap)"/>
						<path d="m61.7 32.25c0.833-0.133 1.45-0.316 1.85-0.55 0.167-0.1 0.551-0.184 1.15-0.25 0.566-0.066 0.95-0.217 1.15-0.45 0.267-0.3 0.25-0.533-0.051-0.699-0.3-0.167-0.783-0.167-1.449 0-1.3 0.3-2.183 0.949-2.65 1.949z" fill="#FFF7F2"/>
						<path d="m65 30.801c-0.767-0.134-1.583 0.267-2.45 1.199h0.2c0.267-0.033 0.533-0.133 0.8-0.3 0.167-0.1 0.517-0.184 1.051-0.25 0.5-0.066 0.85-0.166 1.05-0.3-0.134-0.133-0.351-0.25-0.651-0.349z" fill="#C4BDBA"/>
						<path d="m62.8 32.051l0.551-0.051 0.85-0.399 0.8-0.25-0.899-0.101c-0.235 0-0.668 0.267-1.302 0.801z" fill="#918C8B"/>
						<path d="m61 32.351l-0.6-0.8c-0.566-0.601-1.25-1-2.05-1.2-0.667-0.134-1.15-0.117-1.45 0.05s-0.316 0.4-0.05 0.7c0.199 0.2 0.583 0.35 1.149 0.45 0.601 0.066 0.983 0.149 1.15 0.25 0.233 0.133 0.616 0.267 1.149 0.399l0.702 0.151z" fill="#FFF7F2"/>
						<path d="m57.7 30.9c-0.233 0.033-0.45 0.15-0.65 0.35 0.2 0.134 0.551 0.233 1.051 0.301 0.533 0.066 0.883 0.149 1.05 0.25l0.8 0.3h0.2l-0.8-0.7c-0.634-0.434-1.184-0.6-1.651-0.501z" fill="#C4BDBA"/>
						<path d="m59.9 32.101l-0.5-0.351c-0.4-0.267-0.667-0.399-0.8-0.399l-0.9 0.1c0.366 0.033 0.634 0.101 0.8 0.2l0.8 0.4 0.6 0.05z" fill="#918C8B"/>
						<path d="m60.2 32.051c0.134 0.166 0.4 0.267 0.8 0.3l1.101-0.101c0.6-0.6 0.916-1.017 0.949-1.25 0.067-0.466-0.383-0.699-1.35-0.699-0.866 0-1.366 0.583-1.5 1.75z" fill="#FFF7F2"/>
						<path d="m60.3 32.25c0.334 0.167 0.75 0.217 1.25 0.15 0.301-0.066 0.483-0.134 0.551-0.2 0.066-0.1 0.166-0.2 0.3-0.3 0.166-0.1 0.25-0.217 0.25-0.35v-0.2c0.033-0.066 0.05-0.15 0.05-0.25-0.033-0.2-0.167-0.316-0.4-0.351-0.366-0.1-0.716-0.017-1.05 0.25l-0.251 0.201c-0.166 0.134-0.267 0.267-0.3 0.4l-0.4 0.65z" fill="#C4BDBA"/>
						<polygon points="61.45 32.45 61.8 31.851 61.95 31.15 61.351 31.65 60.8 32.351" fill="#918C8B"/>
						<path d="m55.2 28.101c0 0.166 0.25 0.333 0.75 0.5 0.967 0.366 2.616 0.583 4.95 0.649 3.1 0.101 5.083-0.017 5.95-0.35l0.399-0.55-6 0.5c-1.332 0.067-3.349-0.183-6.049-0.749z" fill="#FFF7F2"/>
						<path d="m60.95 29.601c-2-0.066-3.634-0.283-4.9-0.65l1.351 1c1.6 0.2 2.899 0.283 3.899 0.25l3.95-0.3 1.3-0.8-1.699 0.25c-1.368 0.2-2.667 0.283-3.901 0.25z" fill="#C6C0BD"/>
						<path d="m64.05 32.9h-2.9c-0.867 0.033-1.684 0.033-2.45 0 0.467 0.2 1.283 0.3 2.45 0.3 0.733 0 1.434-0.05 2.1-0.149l0.8-0.151z" fill="#FFF7F2"/>
						<path d="m62.101 35.75l-0.051-0.35c-0.133-0.233-0.35-0.35-0.649-0.35-0.467 0-0.684 0.233-0.65 0.699h1.35z" fill="#FFF7F2"/>
						<path d="m62 34.15c-0.733-0.033-1.116-0.017-1.149 0.05l-0.301 0.7 0.7-0.1c0.167-0.034 0.5 0.017 1 0.149-0.066-0.3-0.149-0.517-0.25-0.649v-0.15z" fill="#C6C0BD"/>
						<path d="m62.2 37.45l-0.8 0.15c-0.267 0-0.584-0.066-0.95-0.2-0.033 0.667 0.25 1.017 0.85 1.05 0.4 0.033 0.667-0.116 0.801-0.45l0.099-0.55z" fill="#FFF7F2"/>
						<path d="m62.2 38.551l-0.65 0.199c1.134 0.2 1.7 0.017 1.7-0.55 0-0.366-0.1-0.733-0.3-1.1h-0.35l0.1 0.6c0 0.434-0.167 0.717-0.5 0.851z" fill="#8E8682"/>
						<path d="m60.15 38.351c-0.3-0.167-0.267-0.483 0.1-0.95l-0.35-0.15c-0.134 0.334-0.2 0.567-0.2 0.7 0 0.467 0.4 0.733 1.2 0.8l-0.75-0.4z" fill="#C6C0BD"/>
						<path d="m49.7 47.5c-1.467-0.6-2.467-1.366-3-2.3-0.5-0.967-0.866-2.3-1.1-4-0.233 1.467 0.166 3.084 1.199 4.851 0.335 0.633 1.302 1.116 2.901 1.449z" fill="#FFF7F2"/>
						<path d="m46.9 27.15v-0.3l-0.8 3.649c-0.4 0.801-1.167 1.4-2.301 1.801 0.9-0.167 1.684-0.567 2.351-1.2 0.633-0.566 0.883-1.883 0.75-3.95z" fill="#FFF7F2"/>
						<path d="m44.601 24.601c-0.301-0.467-0.767-0.667-1.401-0.601-0.3 0.034-0.583 0.117-0.85 0.25 0.133 0.034 0.3 0.084 0.5 0.15 0.366 0.167 0.649 0.417 0.85 0.75 0.167 0.366 0.217 0.667 0.15 0.9 0 0.133-0.034 0.233-0.101 0.3l1.351-0.05c0.033-0.101 0.033-0.25 0-0.45-0.067-0.4-0.233-0.816-0.499-1.249z" fill="#FFF7F2"/>
						<polygon points="46 24.95 46.101 25.45 46.9 25.851 46.95 25.25" fill="#918C8B"/>
						<polygon points="62.2 46.551 61.8 46.301 60.851 46.65 61.25 46.95" fill="#A39E9D"/>
					</g>
			<g clip-rule="evenodd" fill-rule="evenodd">
				<path d="m21.95 11.15c0 0.567-0.267 1.2-0.8 1.9-0.8 1.1-1.5 2.383-2.1 3.85-0.3 0.767-0.383 2.233-0.25 4.4-0.133 2.067-1.017 3.684-2.65 4.85-1.3 0.967-3.033 1.367-5.2 1.2-2.134 0.167-3.867-0.233-5.2-1.2-1.633-1.167-2.5-2.783-2.6-4.85 0.133-2.167 0.05-3.633-0.25-4.4-0.6-1.467-1.3-2.75-2.1-3.85-0.533-0.7-0.8-1.333-0.8-1.9 0-0.7 1.5-1.233 4.5-1.6 2.267-0.3 4.9-0.45 7.9-0.45 6.367 0 9.55 0.683 9.55 2.05z" fill="#FFECE3"/>
					<radialGradient id="aq" cx="11.2" cy="18.9" r="10.475" gradientTransform="matrix(1 0 0 -.864 0 35.229)" gradientUnits="userSpaceOnUse">
					<stop stop-color="#FFF1E8" stop-opacity="0" offset="0"/>
					<stop stop-color="#C6A089" stop-opacity=".3804" offset=".4588"/>
					<stop stop-color="#87451F" stop-opacity=".498" offset=".9569"/>
				</radialGradient>
				<path d="m21.9 10.85l0.05 0.3c0 0.567-0.267 1.2-0.8 1.9-0.8 1.1-1.5 2.383-2.1 3.85-0.3 0.767-0.383 2.233-0.25 4.4-0.133 2.067-1.017 3.684-2.65 4.85-1.3 0.967-3.033 1.367-5.2 1.2-2.134 0.167-3.867-0.233-5.2-1.2-1.633-1.167-2.5-2.783-2.6-4.85 0.133-2.167 0.05-3.633-0.25-4.4-0.6-1.467-1.3-2.75-2.1-3.85-0.533-0.7-0.8-1.333-0.8-1.9 0-0.133 0.033-0.233 0.1-0.3 2.8 0.333 6.45 0.5 10.95 0.5 3.833 0 7.45-0.167 10.85-0.5z" fill="url(#aq)"/>
					<linearGradient id="ar" x1="-16.349" x2="-1.1736" y1="11.051" y2="11.051" gradientTransform="matrix(6.5898e-5 -1 1 -.001 -.00013876 .00020179)" gradientUnits="userSpaceOnUse">
					<stop stop-color="#87451F" stop-opacity=".7098" offset=".0157"/>
					<stop stop-color="#90522E" stop-opacity=".6863" offset=".1098"/>
					<stop stop-color="#A87456" stop-opacity=".6353" offset=".2863"/>
					<stop stop-color="#CEAB96" stop-opacity=".549" offset=".5294"/>
					<stop stop-color="#FFF1E8" stop-opacity=".4392" offset=".8157"/>
				</linearGradient>
				<path d="m18.15 9.6c1.934 0.333 3.2 0.75 3.8 1.25-1.034 0.167-2.583 0.283-4.65 0.35-2.667 0.066-4.75 0.117-6.25 0.15-4.4 0-8.033-0.167-10.9-0.5l0.25-0.3c0.733-0.5 2.434-0.883 5.1-1.15 2.133-0.2 4.434-0.3 6.9-0.3 1.967 0 3.883 0.167 5.75 0.5z" fill="url(#ar)"/>
				<path d="m1.4 11.15c2.667 0.233 4.45 0.35 5.35 0.35 0.667 0 1.95-0.017 3.85-0.05 2.733 0 6.2-0.217 10.4-0.65-1.733 0.733-4.833 1.167-9.3 1.3-2.967 0.1-5.583-0.033-7.85-0.4l-2.45-0.55z" fill="#F4DED7"/>
				<path d="m18 24.15c-0.367 0.767-0.983 1.434-1.85 2-1.3 0.967-3.033 1.367-5.2 1.2-2.134 0.167-3.867-0.233-5.2-1.2-0.733-0.533-1.3-1.133-1.7-1.8 2.167 1.2 4.534 1.783 7.1 1.75 2.967-0.067 5.25-0.717 6.85-1.95z" fill="#A8908A"/>
				<path d="m6.7 11.45l1.05-0.5c0.934-0.333 2-0.517 3.2-0.55 1.866-0.066 3.333 0.25 4.4 0.95-1.934 0.167-3.517 0.25-4.75 0.25l-3.9-0.15z" fill="#FFF2F0"/>
				<path d="m20.35 13.95c-2.733 0.667-5.767 1.033-9.1 1.1-2.2 0.034-4.45-0.133-6.75-0.5l-2.8-0.6-0.3-0.95 2.1 0.7c2.133 0.433 4.934 0.6 8.4 0.5 3.1-0.067 5.6-0.284 7.5-0.65 0.967-0.2 1.617-0.383 1.95-0.55l-1 0.95z" fill="#B79A95"/>
			</g>
			<g clip-rule="evenodd" fill-rule="evenodd">
				<path d="m57.1 26.15c-1.6-1.167-2.467-2.783-2.6-4.85-0.167-2.9-0.267-4.367-0.3-4.4-0.567-1.467-1.25-2.75-2.05-3.85-0.534-0.7-0.801-1.333-0.801-1.9 0-1.367 3.167-2.05 9.5-2.05 3.033 0 5.684 0.15 7.95 0.45 3 0.367 4.5 0.9 4.5 1.6 0 0.567-0.267 1.2-0.8 1.9-0.8 1.1-1.5 2.383-2.1 3.85-0.301 0.767-0.384 2.233-0.25 4.4-0.134 2.067-1.018 3.684-2.65 4.85-1.3 0.967-3.033 1.367-5.2 1.2-2.166 0.167-3.899-0.233-5.199-1.2z" fill="#FFECE3"/>
					<radialGradient id="as" cx="62.1" cy="18.9" r="10.475" gradientTransform="matrix(-1 0 0 -.864 124.2 35.229)" gradientUnits="userSpaceOnUse">
					<stop stop-color="#FFF1E8" stop-opacity="0" offset="0"/>
					<stop stop-color="#C6A089" stop-opacity=".3804" offset=".4588"/>
					<stop stop-color="#87451F" stop-opacity=".498" offset=".9569"/>
				</radialGradient>
				<path d="m73.2 10.85l0.1 0.3c0 0.567-0.267 1.2-0.8 1.9-0.8 1.1-1.5 2.383-2.1 3.85-0.301 0.767-0.384 2.233-0.25 4.4-0.134 2.067-1.018 3.684-2.65 4.85-1.3 0.967-3.033 1.367-5.2 1.2-2.167 0.167-3.899-0.233-5.2-1.2-1.6-1.167-2.467-2.783-2.6-4.85-0.167-2.9-0.267-4.367-0.3-4.4-0.567-1.467-1.25-2.75-2.05-3.85-0.534-0.7-0.801-1.333-0.801-1.9l0.051-0.3c3.399 0.333 7.017 0.5 10.85 0.5 4.5 0 8.15-0.167 10.95-0.5z" fill="url(#as)"/>
				<linearGradient id="at" x1="62.225" x2="62.225" y1="1.1626" y2="16.338" gradientUnits="userSpaceOnUse">
					<stop stop-color="#87451F" stop-opacity=".7098" offset=".0157"/>
					<stop stop-color="#90522E" stop-opacity=".6863" offset=".1098"/>
					<stop stop-color="#A87456" stop-opacity=".6353" offset=".2863"/>
					<stop stop-color="#CEAB96" stop-opacity=".549" offset=".5294"/>
					<stop stop-color="#FFF1E8" stop-opacity=".4392" offset=".8157"/>
				</linearGradient>
				<path d="m62.25 11.35l-6.25-0.15c-2.066-0.067-3.617-0.184-4.65-0.35 0.601-0.5 1.867-0.917 3.801-1.25 1.833-0.333 3.732-0.5 5.699-0.5 2.5 0 4.817 0.1 6.95 0.3 2.667 0.267 4.367 0.65 5.101 1.15l0.199 0.3c-2.8 0.333-6.416 0.5-10.85 0.5z" fill="url(#at)"/>
				<path d="m71.85 11.15c-0.5 0.2-1.316 0.383-2.449 0.55-2.233 0.367-4.834 0.5-7.801 0.4-2.8-0.067-5.199-0.3-7.199-0.7l-2.15-0.6 3.65 0.35c2.8 0.2 5.05 0.3 6.75 0.3 1.433 0 2.716 0.017 3.85 0.05 0.899 0 2.683-0.117 5.349-0.35z" fill="#F4DED7"/>
				<path d="m57.1 26.15c-0.767-0.5-1.383-1.167-1.85-2 1.7 1.233 4 1.883 6.9 1.95 2.5 0.033 4.866-0.55 7.1-1.75-0.434 0.7-1.017 1.3-1.75 1.8-1.3 0.967-3.033 1.367-5.2 1.2-2.167 0.167-3.9-0.233-5.2-1.2z" fill="#A8908A"/>
				<path d="m66.55 11.45c-1.366 0.1-2.667 0.15-3.899 0.15-0.733 0-1.75-0.033-3.051-0.1l-1.7-0.15 1.199-0.5c1-0.333 2.084-0.483 3.25-0.45 1.868 0.067 3.267 0.417 4.201 1.05z" fill="#FFF2F0"/>
				<path d="m71.85 13l-0.3 0.95c-2.8 0.8-5.983 1.167-9.55 1.1-2.066-0.033-4.2-0.233-6.4-0.6l-2.699-0.5-0.951-0.95 1.95 0.55c1.899 0.367 4.383 0.583 7.449 0.65 3.467 0.1 6.267-0.067 8.4-0.5 1.034-0.233 1.734-0.467 2.101-0.7z" fill="#B79A95"/>
			</g>
		<use transform="matrix(1 0 0 -1 36.65 59.45)" x="16383" y="16383" width="-32766" height="-32766" xlink:href="#bj"/>
</svg>
